<?xml version="1.0" encoding="UTF-8" standalone="no"?><!DOCTYPE svg PUBLIC "-//W3C//DTD SVG 1.1//EN" "http://www.w3.org/Graphics/SVG/1.1/DTD/svg11.dtd"><svg width="100%" height="100%" viewBox="0 0 39167 4292" version="1.1" xmlns="http://www.w3.org/2000/svg" xmlns:xlink="http://www.w3.org/1999/xlink" xml:space="preserve" xmlns:serif="http://www.serif.com/" style="fill-rule:evenodd;clip-rule:evenodd;stroke-linejoin:round;stroke-miterlimit:2;"><rect id="Artboard1" x="0" y="0" width="39166.7" height="4291.67" style="fill:none;"/><g><g><path d="M7746.1,640.147l533.433,1581.34l527.112,-1581.34l281.885,-0l-677.535,1856.9l-266.717,0l-676.271,-1856.9l278.093,-0Z" style="fill-rule:nonzero;"/><path d="M9295.83,1149.56l231.322,0l0,1347.49l-231.322,0l-0,-1347.49Zm-0,-509.415l231.322,-0l0,257.867l-231.322,0l-0,-257.867Z" style="fill-rule:nonzero;"/><path d="M10393,1104.06c152.53,-0 276.618,37.079 372.266,111.237c95.647,74.158 153.161,201.828 172.544,383.01l-221.211,-0c-13.483,-83.428 -44.242,-152.741 -92.276,-207.938c-48.034,-55.197 -125.142,-82.796 -231.323,-82.796c-144.945,0 -248.598,70.788 -310.958,212.362c-40.45,91.855 -60.675,205.199 -60.675,340.032c0,135.676 28.652,249.862 85.956,342.56c57.304,92.697 147.474,139.046 270.509,139.046c94.383,0 169.173,-28.862 224.37,-86.588c55.197,-57.725 93.33,-136.729 114.397,-237.011l221.211,0c-25.282,179.497 -88.485,310.748 -189.609,393.754c-101.125,83.007 -230.48,124.51 -388.066,124.51c-176.968,0 -318.122,-64.677 -423.46,-194.033c-105.338,-129.355 -158.007,-290.944 -158.007,-484.766c-0,-237.643 57.725,-422.617 173.176,-554.922c115.451,-132.305 262.503,-198.457 441.156,-198.457Z" style="fill-rule:nonzero;"/><path d="M11210.9,765.288l230.059,0l-0,377.954l216.154,-0l-0,185.816l-216.154,0l-0,883.577c-0,47.192 16.011,78.793 48.034,94.805c17.697,9.269 47.192,13.904 88.484,13.904c10.955,0 22.753,-0.21 35.394,-0.632c12.64,-0.421 27.388,-1.475 44.242,-3.16l-0,179.496c-26.124,7.585 -53.301,13.062 -81.532,16.433c-28.231,3.371 -58.779,5.056 -91.644,5.056c-106.181,0 -178.232,-27.177 -216.154,-81.531c-37.922,-54.355 -56.883,-124.932 -56.883,-211.73l0,-896.218l-183.288,0l-0,-185.816l183.288,-0l0,-377.954Z" style="fill-rule:nonzero;"/><path d="M12421.8,2350.42c150.844,-0 254.287,-57.094 310.326,-171.28c56.04,-114.187 84.06,-241.225 84.06,-381.114c0,-126.406 -20.225,-229.216 -60.674,-308.43c-64.046,-124.721 -174.441,-187.081 -331.184,-187.081c-139.046,0 -240.171,53.091 -303.374,159.272c-63.203,106.18 -94.804,234.272 -94.804,384.273c-0,144.103 31.601,264.188 94.804,360.257c63.203,96.068 163.485,144.103 300.846,144.103Zm8.849,-1246.36c174.44,-0 321.913,58.147 442.42,174.44c120.507,116.293 180.76,287.363 180.76,513.208c0,218.261 -53.09,398.6 -159.271,541.017c-106.181,142.417 -270.93,213.626 -494.247,213.626c-186.238,-0 -334.133,-62.993 -443.684,-188.977c-109.552,-125.985 -164.328,-295.158 -164.328,-507.52c0,-227.53 57.725,-408.712 173.176,-543.545c115.451,-134.833 270.509,-202.249 465.174,-202.249Z" style="fill-rule:nonzero;"/><path d="M13330.7,1143.24l216.154,-0l0,233.851c17.697,-45.506 61.096,-100.914 130.198,-166.224c69.102,-65.31 148.738,-97.965 238.907,-97.965c4.214,0 11.377,0.422 21.489,1.264c10.113,0.843 27.388,2.529 51.827,5.057l-0,240.171c-13.484,-2.528 -25.914,-4.214 -37.29,-5.056c-11.377,-0.843 -23.807,-1.265 -37.29,-1.265c-114.608,0 -202.671,36.869 -264.188,110.606c-61.518,73.736 -92.276,158.639 -92.276,254.707l-0,778.66l-227.531,0l0,-1353.81Z" style="fill-rule:nonzero;"/><path d="M14186.5,1149.56l231.322,0l0,1347.49l-231.322,0l-0,-1347.49Zm-0,-509.415l231.322,-0l0,257.867l-231.322,0l-0,-257.867Z" style="fill-rule:nonzero;"/><path d="M14936.1,2136.79c0,65.731 24.017,117.557 72.052,155.479c48.034,37.922 104.917,56.883 170.648,56.883c80.057,-0 157.586,-18.54 232.586,-55.619c126.406,-61.518 189.609,-162.221 189.609,-302.11l0,-183.288c-27.809,17.696 -63.624,32.444 -107.445,44.242c-43.821,11.797 -86.799,20.225 -128.934,25.281l-137.782,17.697c-82.585,10.955 -144.524,28.23 -185.817,51.826c-69.944,39.607 -104.917,102.81 -104.917,189.609Zm551.13,-460.118c52.248,-6.741 87.22,-28.652 104.917,-65.731c10.112,-20.225 15.168,-49.298 15.168,-87.22c0,-77.529 -27.598,-133.779 -82.795,-168.751c-55.198,-34.973 -134.201,-52.459 -237.011,-52.459c-118.822,0 -203.092,32.023 -252.812,96.069c-27.809,35.393 -45.928,88.062 -54.355,158.007l-212.361,-0c4.213,-166.856 58.357,-282.939 162.431,-348.248c104.074,-65.31 224.792,-97.965 362.153,-97.965c159.271,0 288.626,30.338 388.066,91.012c98.596,60.675 147.895,155.058 147.895,283.15l-0,779.924c-0,23.595 4.845,42.556 14.536,56.882c9.691,14.326 30.127,21.489 61.307,21.489c10.113,0 21.489,-0.632 34.13,-1.896c12.64,-1.264 26.124,-3.16 40.45,-5.688l-0,168.12c-35.394,10.112 -62.361,16.432 -80.9,18.961c-18.54,2.528 -43.821,3.792 -75.844,3.792c-78.371,-0 -135.254,-27.81 -170.648,-83.428c-18.539,-29.495 -31.601,-71.209 -39.185,-125.142c-46.349,60.675 -112.923,113.344 -199.722,158.007c-86.798,44.664 -182.445,66.995 -286.941,66.995c-125.563,0 -228.162,-38.132 -307.798,-114.397c-79.636,-76.265 -119.454,-171.701 -119.454,-286.309c0,-125.563 39.186,-222.896 117.558,-291.998c78.371,-69.101 181.181,-111.658 308.43,-127.669l362.785,-45.507Z" style="fill-rule:nonzero;"/><path d="M16396,1897.88c5.899,105.338 30.759,190.873 74.579,256.604c83.428,123.035 230.48,184.552 441.157,184.552c94.383,0 180.339,-13.483 257.868,-40.45c150.001,-52.248 225.002,-145.788 225.002,-280.621c-0,-101.124 -31.601,-173.176 -94.804,-216.154c-64.046,-42.135 -164.328,-78.793 -300.846,-109.973l-251.548,-56.882c-164.328,-37.08 -280.621,-77.951 -348.88,-122.614c-117.979,-77.529 -176.968,-193.401 -176.968,-347.616c-0,-166.856 57.725,-303.796 173.176,-410.819c115.45,-107.024 278.935,-160.536 490.454,-160.536c194.665,0 360.046,46.981 496.143,140.943c136.097,93.962 204.146,244.174 204.146,450.637l-236.379,-0c-12.641,-99.44 -39.607,-175.704 -80.9,-228.795c-76.686,-96.911 -206.884,-145.367 -390.594,-145.367c-148.316,0 -254.918,31.181 -319.807,93.541c-64.888,62.36 -97.332,134.833 -97.332,217.418c-0,91.012 37.922,157.586 113.765,199.721c49.72,26.967 162.221,60.675 337.504,101.125l260.396,59.41c125.563,28.652 222.474,67.838 290.733,117.558c117.979,86.799 176.968,212.783 176.968,377.953c0,205.621 -74.79,352.673 -224.37,441.157c-149.58,88.484 -323.388,132.726 -521.424,132.726c-230.901,-0 -411.662,-58.99 -542.281,-176.968c-130.62,-117.136 -194.665,-275.986 -192.137,-476.55l236.379,-0Z" style="fill-rule:nonzero;"/><path d="M17928.1,633.826l227.53,0l0,692.704c53.933,-68.259 102.389,-116.293 145.367,-144.102c73.315,-48.035 164.749,-72.052 274.301,-72.052c196.35,0 329.497,68.681 399.442,206.042c37.922,75.001 56.883,179.075 56.883,312.222l-0,868.408l-233.851,0l-0,-853.239c-0,-99.439 -12.641,-172.333 -37.922,-218.682c-41.292,-74.158 -118.821,-111.237 -232.587,-111.237c-94.383,-0 -179.917,32.444 -256.604,97.332c-76.686,64.889 -115.029,187.502 -115.029,367.841l0,717.985l-227.53,0l-0,-1863.22Z" style="fill-rule:nonzero;"/><path d="M19542.3,2136.79c0,65.731 24.017,117.557 72.052,155.479c48.034,37.922 104.916,56.883 170.647,56.883c80.058,-0 157.586,-18.54 232.587,-55.619c126.406,-61.518 189.609,-162.221 189.609,-302.11l-0,-183.288c-27.809,17.696 -63.624,32.444 -107.445,44.242c-43.821,11.797 -86.799,20.225 -128.934,25.281l-137.782,17.697c-82.585,10.955 -144.524,28.23 -185.817,51.826c-69.944,39.607 -104.917,102.81 -104.917,189.609Zm551.13,-460.118c52.247,-6.741 87.22,-28.652 104.917,-65.731c10.112,-20.225 15.168,-49.298 15.168,-87.22c0,-77.529 -27.598,-133.779 -82.796,-168.751c-55.197,-34.973 -134.2,-52.459 -237.011,-52.459c-118.821,0 -203.092,32.023 -252.811,96.069c-27.809,35.393 -45.928,88.062 -54.355,158.007l-212.362,-0c4.214,-166.856 58.358,-282.939 162.432,-348.248c104.074,-65.31 224.792,-97.965 362.153,-97.965c159.271,0 288.626,30.338 388.066,91.012c98.596,60.675 147.895,155.058 147.895,283.15l-0,779.924c-0,23.595 4.845,42.556 14.536,56.882c9.691,14.326 30.127,21.489 61.307,21.489c10.112,0 21.489,-0.632 34.13,-1.896c12.64,-1.264 26.123,-3.16 40.449,-5.688l0,168.12c-35.393,10.112 -62.36,16.432 -80.899,18.961c-18.54,2.528 -43.821,3.792 -75.844,3.792c-78.371,-0 -135.254,-27.81 -170.648,-83.428c-18.539,-29.495 -31.601,-71.209 -39.185,-125.142c-46.349,60.675 -112.923,113.344 -199.722,158.007c-86.798,44.664 -182.445,66.995 -286.941,66.995c-125.563,0 -228.163,-38.132 -307.798,-114.397c-79.636,-76.265 -119.454,-171.701 -119.454,-286.309c0,-125.563 39.186,-222.896 117.558,-291.998c78.371,-69.101 181.181,-111.658 308.43,-127.669l362.785,-45.507Z" style="fill-rule:nonzero;"/><path d="M20807.6,1143.24l216.154,-0l-0,192.137c64.045,-79.215 131.883,-136.097 203.513,-170.648c71.63,-34.551 151.266,-51.827 238.907,-51.827c192.137,0 321.914,66.995 389.33,200.986c37.079,73.315 55.619,178.232 55.619,314.75l-0,868.408l-231.323,0l0,-853.239c0,-82.585 -12.219,-149.159 -36.658,-199.721c-40.45,-84.271 -113.765,-126.406 -219.946,-126.406c-53.933,-0 -98.175,5.477 -132.726,16.433c-62.36,18.539 -117.136,55.618 -164.328,111.237c-37.921,44.663 -62.57,90.801 -73.947,138.414c-11.376,47.613 -17.065,115.662 -17.065,204.146l0,709.136l-227.53,0l-0,-1353.81Z" style="fill-rule:nonzero;"/><path d="M22725.2,1119.23c106.181,-0 198.879,26.124 278.093,78.371c42.978,29.495 86.799,72.473 131.462,128.934l0,-170.648l209.834,0l0,1231.19c0,171.912 -25.281,307.588 -75.843,407.027c-94.384,183.71 -272.616,275.565 -534.697,275.565c-145.788,-0 -268.402,-32.655 -367.841,-97.965c-99.439,-65.309 -155.058,-167.487 -166.856,-306.534l231.323,0c10.955,60.675 32.865,107.445 65.731,140.311c51.405,50.562 132.305,75.843 242.699,75.843c174.44,0 288.627,-61.517 342.56,-184.552c32.023,-72.473 46.77,-201.828 44.242,-388.066c-45.506,69.102 -100.282,120.507 -164.328,154.215c-64.045,33.708 -148.737,50.562 -254.075,50.562c-146.631,0 -274.933,-52.037 -384.906,-156.111c-109.973,-104.074 -164.96,-276.197 -164.96,-516.368c0,-226.688 55.408,-403.656 166.224,-530.904c110.816,-127.249 244.595,-190.873 401.338,-190.873Zm409.555,695.232c0,-167.699 -34.551,-291.998 -103.652,-372.897c-69.102,-80.9 -157.165,-121.35 -264.189,-121.35c-160.114,-0 -269.665,75.001 -328.655,225.002c-31.18,80.057 -46.77,184.974 -46.77,314.751c-0,152.53 30.969,268.612 92.908,348.248c61.939,79.636 145.156,119.454 249.652,119.454c163.485,-0 278.514,-73.737 345.088,-221.211c37.079,-83.428 55.618,-180.76 55.618,-291.997Z" style="fill-rule:nonzero;"/><path d="M23687.1,633.826l227.53,0l0,692.704c53.934,-68.259 102.389,-116.293 145.367,-144.102c73.315,-48.035 164.749,-72.052 274.301,-72.052c196.35,0 329.498,68.681 399.442,206.042c37.922,75.001 56.883,179.075 56.883,312.222l-0,868.408l-233.851,0l0,-853.239c0,-99.439 -12.641,-172.333 -37.922,-218.682c-41.292,-74.158 -118.821,-111.237 -232.586,-111.237c-94.383,-0 -179.918,32.444 -256.604,97.332c-76.687,64.889 -115.03,187.502 -115.03,367.841l0,717.985l-227.53,0l-0,-1863.22Z" style="fill-rule:nonzero;"/><path d="M25301.3,2136.79c0,65.731 24.018,117.557 72.052,155.479c48.034,37.922 104.917,56.883 170.648,56.883c80.057,-0 157.586,-18.54 232.586,-55.619c126.406,-61.518 189.609,-162.221 189.609,-302.11l0,-183.288c-27.809,17.696 -63.624,32.444 -107.445,44.242c-43.82,11.797 -86.798,20.225 -128.934,25.281l-137.782,17.697c-82.585,10.955 -144.524,28.23 -185.817,51.826c-69.944,39.607 -104.917,102.81 -104.917,189.609Zm551.13,-460.118c52.248,-6.741 87.22,-28.652 104.917,-65.731c10.112,-20.225 15.168,-49.298 15.168,-87.22c0,-77.529 -27.598,-133.779 -82.795,-168.751c-55.198,-34.973 -134.201,-52.459 -237.011,-52.459c-118.822,0 -203.092,32.023 -252.812,96.069c-27.809,35.393 -45.927,88.062 -54.354,158.007l-212.362,-0c4.213,-166.856 58.357,-282.939 162.431,-348.248c104.074,-65.31 224.792,-97.965 362.153,-97.965c159.271,0 288.627,30.338 388.066,91.012c98.596,60.675 147.895,155.058 147.895,283.15l-0,779.924c-0,23.595 4.845,42.556 14.536,56.882c9.692,14.326 30.127,21.489 61.307,21.489c10.113,0 21.489,-0.632 34.13,-1.896c12.64,-1.264 26.124,-3.16 40.45,-5.688l-0,168.12c-35.394,10.112 -62.361,16.432 -80.9,18.961c-18.54,2.528 -43.821,3.792 -75.844,3.792c-78.371,-0 -135.254,-27.81 -170.647,-83.428c-18.54,-29.495 -31.602,-71.209 -39.186,-125.142c-46.349,60.675 -112.923,113.344 -199.722,158.007c-86.798,44.664 -182.445,66.995 -286.941,66.995c-125.563,0 -228.162,-38.132 -307.798,-114.397c-79.636,-76.265 -119.454,-171.701 -119.454,-286.309c0,-125.563 39.186,-222.896 117.558,-291.998c78.372,-69.101 181.182,-111.658 308.43,-127.669l362.785,-45.507Z" style="fill-rule:nonzero;"/><path d="M26566.7,1149.56l231.323,0l-0,1347.49l-231.323,0l-0,-1347.49Zm-0,-509.415l231.323,-0l-0,257.867l-231.323,0l-0,-257.867Z" style="fill-rule:nonzero;"/><path d="M28125.2,1736.09l-281.885,-820.374l-299.582,820.374l581.467,0Zm-413.347,-1095.94l284.413,-0l673.743,1856.9l-275.565,0l-188.344,-556.185l-734.418,-0l-200.985,556.185l-257.868,0l699.024,-1856.9Z" style="fill-rule:nonzero;"/><path d="M29390.6,1104.06c152.53,-0 276.619,37.079 372.266,111.237c95.647,74.158 153.161,201.828 172.544,383.01l-221.211,-0c-13.483,-83.428 -44.242,-152.741 -92.276,-207.938c-48.034,-55.197 -125.142,-82.796 -231.323,-82.796c-144.945,0 -248.598,70.788 -310.958,212.362c-40.45,91.855 -60.675,205.199 -60.675,340.032c0,135.676 28.652,249.862 85.956,342.56c57.304,92.697 147.474,139.046 270.509,139.046c94.383,0 169.173,-28.862 224.37,-86.588c55.197,-57.725 93.33,-136.729 114.397,-237.011l221.211,0c-25.281,179.497 -88.484,310.748 -189.609,393.754c-101.125,83.007 -230.48,124.51 -388.066,124.51c-176.968,0 -318.121,-64.677 -423.46,-194.033c-105.338,-129.355 -158.007,-290.944 -158.007,-484.766c0,-237.643 57.725,-422.617 173.176,-554.922c115.451,-132.305 262.503,-198.457 441.156,-198.457Z" style="fill-rule:nonzero;"/><path d="M30337.3,2136.79c0,65.731 24.017,117.557 72.052,155.479c48.034,37.922 104.916,56.883 170.647,56.883c80.058,-0 157.586,-18.54 232.587,-55.619c126.406,-61.518 189.609,-162.221 189.609,-302.11l-0,-183.288c-27.809,17.696 -63.624,32.444 -107.445,44.242c-43.821,11.797 -86.799,20.225 -128.934,25.281l-137.782,17.697c-82.585,10.955 -144.524,28.23 -185.817,51.826c-69.944,39.607 -104.917,102.81 -104.917,189.609Zm551.13,-460.118c52.247,-6.741 87.22,-28.652 104.917,-65.731c10.112,-20.225 15.168,-49.298 15.168,-87.22c0,-77.529 -27.598,-133.779 -82.796,-168.751c-55.197,-34.973 -134.2,-52.459 -237.011,-52.459c-118.821,0 -203.092,32.023 -252.811,96.069c-27.809,35.393 -45.928,88.062 -54.355,158.007l-212.362,-0c4.214,-166.856 58.358,-282.939 162.432,-348.248c104.074,-65.31 224.792,-97.965 362.153,-97.965c159.271,0 288.626,30.338 388.066,91.012c98.596,60.675 147.895,155.058 147.895,283.15l-0,779.924c-0,23.595 4.845,42.556 14.536,56.882c9.691,14.326 30.127,21.489 61.307,21.489c10.112,0 21.489,-0.632 34.13,-1.896c12.64,-1.264 26.123,-3.16 40.449,-5.688l0,168.12c-35.393,10.112 -62.36,16.432 -80.899,18.961c-18.54,2.528 -43.821,3.792 -75.844,3.792c-78.371,-0 -135.254,-27.81 -170.648,-83.428c-18.539,-29.495 -31.601,-71.209 -39.185,-125.142c-46.349,60.675 -112.923,113.344 -199.722,158.007c-86.798,44.664 -182.445,66.995 -286.941,66.995c-125.563,0 -228.163,-38.132 -307.798,-114.397c-79.636,-76.265 -119.454,-171.701 -119.454,-286.309c0,-125.563 39.186,-222.896 117.558,-291.998c78.371,-69.101 181.181,-111.658 308.43,-127.669l362.785,-45.507Z" style="fill-rule:nonzero;"/><path d="M31746.8,1835.95c0,144.945 30.759,266.295 92.277,364.049c61.517,97.753 160.114,146.63 295.789,146.63c105.339,0 191.927,-45.295 259.764,-135.886c67.838,-90.591 101.757,-220.578 101.757,-389.962c0,-171.069 -34.972,-297.686 -104.917,-379.849c-69.944,-82.164 -156.322,-123.246 -259.132,-123.246c-114.608,-0 -207.516,43.821 -278.725,131.462c-71.208,87.641 -106.813,216.575 -106.813,386.802Zm342.56,-716.721c103.653,-0 190.452,21.91 260.396,65.731c40.45,25.281 86.378,69.523 137.783,132.726l-0,-683.856l218.682,0l-0,1863.22l-204.778,0l0,-188.344c-53.09,83.428 -115.872,143.681 -188.344,180.76c-72.473,37.079 -155.48,55.619 -249.02,55.619c-150.844,-0 -281.464,-63.414 -391.858,-190.241c-110.394,-126.827 -165.592,-295.579 -165.592,-506.256c0,-197.193 50.352,-368.051 151.055,-512.575c100.704,-144.524 244.596,-216.786 431.676,-216.786Z" style="fill-rule:nonzero;"/><path d="M33606.2,1112.9c96.069,0 189.188,22.543 279.357,67.628c90.17,45.084 158.85,103.442 206.042,175.072c45.506,68.259 75.843,147.894 91.012,238.907c13.483,62.36 20.225,161.799 20.225,298.317l-992.286,0c4.214,137.361 36.658,247.545 97.333,330.552c60.674,83.006 154.636,124.509 281.885,124.509c118.821,0 213.625,-39.185 284.413,-117.557c40.45,-45.506 69.102,-98.175 85.956,-158.007l223.738,-0c-5.899,49.719 -25.492,105.127 -58.779,166.223c-33.287,61.097 -70.576,111.027 -111.869,149.791c-69.102,67.417 -154.636,112.923 -256.604,136.519c-54.776,13.483 -116.714,20.225 -185.816,20.225c-168.541,-0 -311.38,-61.307 -428.516,-183.921c-117.136,-122.614 -175.704,-294.315 -175.704,-515.104c-0,-217.418 58.989,-393.965 176.968,-529.64c117.979,-135.676 272.194,-203.514 462.645,-203.514Zm362.785,599.164c-9.27,-98.596 -30.759,-177.389 -64.467,-236.379c-62.36,-109.552 -166.434,-164.327 -312.222,-164.327c-104.496,-0 -192.137,37.711 -262.924,113.133c-70.788,75.422 -108.288,171.28 -112.502,287.573l752.115,0Z" style="fill-rule:nonzero;"/><path d="M34482.2,1143.24l225.002,-0l0,192.137c53.933,-66.574 102.81,-115.03 146.631,-145.367c75.001,-51.405 160.114,-77.108 255.34,-77.108c107.866,0 194.665,26.546 260.396,79.636c37.079,30.337 70.787,75.001 101.125,133.99c50.562,-72.472 109.973,-126.195 178.232,-161.167c68.259,-34.972 144.945,-52.459 230.058,-52.459c182.025,0 305.903,65.731 371.634,197.194c35.393,70.787 53.09,166.013 53.09,285.677l0,901.273l-236.379,0l0,-940.459c0,-90.17 -22.542,-152.108 -67.627,-185.817c-45.085,-33.708 -100.071,-50.562 -164.96,-50.562c-89.326,-0 -166.223,29.916 -230.69,89.748c-64.467,59.832 -96.701,159.693 -96.701,299.582l0,787.508l-231.322,0l-0,-883.576c-0,-91.855 -10.956,-158.85 -32.866,-200.986c-34.551,-63.203 -99.018,-94.804 -193.401,-94.804c-85.956,-0 -164.117,33.287 -234.483,99.86c-70.366,66.574 -105.549,187.081 -105.549,361.521l0,717.985l-227.53,0l-0,-1353.81Z" style="fill-rule:nonzero;"/><path d="M37484.3,1143.24l251.547,-0c-32.023,86.798 -103.231,284.834 -213.626,594.107c-82.585,232.587 -151.687,422.196 -207.305,568.827c-131.462,345.509 -224.16,556.185 -278.093,632.029c-53.933,75.843 -146.631,113.765 -278.093,113.765c-32.023,0 -56.672,-1.264 -73.947,-3.792c-17.276,-2.528 -38.554,-7.163 -63.835,-13.905l-0,-207.305c39.607,10.955 68.259,17.696 85.956,20.225c17.697,2.528 33.287,3.792 46.77,3.792c42.135,-0 73.105,-6.953 92.908,-20.857c19.804,-13.905 36.447,-30.97 49.93,-51.195c4.214,-6.741 19.383,-41.292 45.507,-103.652c26.123,-62.361 45.084,-108.709 56.882,-139.047l-500.567,-1392.99l257.868,-0l362.785,1102.26l365.313,-1102.26Z" style="fill-rule:nonzero;"/></g></g><g><path d="M1048.11,3280.45l-131.371,-189.323l125.191,-0l70.312,104.323l69.549,-104.323l121.32,-0l-131.372,186.996l147.604,212.518l-125.191,-0l-83.455,-125.955l-83.455,125.955l-122.864,-0l143.732,-210.191Z" style="fill:#ee3523;fill-rule:nonzero;"/></g><g><path d="M1839.36,3419.55l-390.243,0l-0,-82.691l390.243,0l0,82.691Zm0,-165.382l-390.243,0l-0,-82.674l390.243,0l0,82.674Z" style="fill:#030404;fill-rule:nonzero;"/></g><g><path d="M2028.65,3091.13l109.723,-0l-0,399.514l-109.723,-0l0,-399.514Zm109.723,-61.823l-109.723,-0l0,-90.417l109.723,0l-0,90.417Z" style="fill:#030404;fill-rule:nonzero;"/></g><g><path d="M2209.45,3091.13l104.323,-0l0,55.625l2.327,-0c27.812,-44.809 75.729,-66.441 122.083,-66.441c116.684,-0 146.059,65.677 146.059,164.583l0,245.747l-109.739,-0l-0,-225.66c-0,-65.677 -19.323,-98.125 -70.313,-98.125c-59.497,-0 -85,33.229 -85,114.375l-0,209.41l-109.74,-0l0,-399.514Z" style="fill:#030404;fill-rule:nonzero;"/></g><g><path d="M2841.51,3162.99c-71.858,0 -96.598,61.823 -96.598,127.518c0,62.587 28.594,128.264 96.598,128.264c72.639,-0 94.288,-63.368 94.288,-129.045c-0,-64.914 -23.195,-126.737 -94.288,-126.737Zm95.816,276.65l-1.528,-0c-25.504,43.264 -70.33,61.823 -121.337,61.823c-120.538,-0 -179.271,-103.559 -179.271,-214.063c0,-107.413 59.497,-207.083 176.962,-207.083c47.135,-0 93.507,20.087 118.993,59.496l-0.764,0l1.545,0l0,-200.92l109.723,0l-0,551.754l-104.323,-0l-0,-51.007Z" style="fill:#030404;fill-rule:nonzero;"/></g><g><path d="M3377.76,3247.99c-10.052,-55.625 -33.993,-85 -87.326,-85c-69.549,0 -89.636,54.098 -91.181,85l178.507,0Zm-178.507,69.549c3.09,69.549 37.101,101.233 98.142,101.233c44.046,-0 79.601,-27.049 86.546,-51.771l96.597,-0c-30.92,94.271 -96.597,134.462 -186.997,134.462c-125.972,-0 -204.01,-86.545 -204.01,-210.191c-0,-119.775 82.673,-210.955 204.01,-210.955c135.99,-0 201.684,114.357 193.941,237.222l-288.229,0Z" style="fill:#030404;fill-rule:nonzero;"/></g><g><path d="M3833.65,3292.05c-0,-63.368 -25.504,-129.063 -95.816,-129.063c-71.858,0 -95.052,64.15 -95.052,129.063c-0,64.896 24.739,126.719 95.816,126.719c71.875,-0 95.052,-61.823 95.052,-126.719Zm-296.736,-200.92l104.323,-0l-0,51.007l1.545,-0c26.267,-42.5 69.548,-61.823 119.01,-61.823c125.174,-0 181.598,101.232 181.598,214.809c-0,106.649 -58.733,206.337 -175.417,206.337c-47.917,-0 -93.507,-20.868 -119.775,-60.278l-1.545,0l0,190.087l-109.739,0l-0,-540.139Z" style="fill:#030404;fill-rule:nonzero;"/></g><g><path d="M4262.49,3247.99c-10.052,-55.625 -33.993,-85 -87.326,-85c-69.549,0 -89.636,54.098 -91.181,85l178.507,0Zm-178.507,69.549c3.09,69.549 37.101,101.233 98.142,101.233c44.046,-0 79.601,-27.049 86.546,-51.771l96.597,-0c-30.92,94.271 -96.597,134.462 -187.014,134.462c-125.955,-0 -203.993,-86.545 -203.993,-210.191c-0,-119.775 82.673,-210.955 203.993,-210.955c136.007,-0 201.701,114.357 193.958,237.222l-288.229,0Z" style="fill:#030404;fill-rule:nonzero;"/></g><g><path d="M4421.64,3091.13l104.323,-0l0,55.625l2.327,-0c27.812,-44.809 75.712,-66.441 122.083,-66.441c116.684,-0 146.042,65.677 146.042,164.583l0,245.747l-109.722,-0l-0,-225.66c-0,-65.677 -19.323,-98.125 -70.313,-98.125c-59.496,-0 -85.017,33.229 -85.017,114.375l-0,209.41l-109.723,-0l0,-399.514Z" style="fill:#030404;fill-rule:nonzero;"/></g><g><path d="M5053.7,3162.99c-71.858,0 -96.597,61.823 -96.597,127.518c-0,62.587 28.593,128.264 96.597,128.264c72.639,-0 94.271,-63.368 94.271,-129.045c-0,-64.914 -23.177,-126.737 -94.271,-126.737Zm95.816,276.65l-1.545,-0c-25.486,43.264 -70.313,61.823 -121.32,61.823c-120.538,-0 -179.271,-103.559 -179.271,-214.063c0,-107.413 59.497,-207.083 176.962,-207.083c47.136,-0 93.507,20.087 118.993,59.496l-0.763,0l1.545,0l-0,-200.92l109.722,0l0,551.754l-104.323,-0l0,-51.007Z" style="fill:#030404;fill-rule:nonzero;"/></g><g><path d="M5589.95,3247.99c-10.052,-55.625 -34.01,-85 -87.326,-85c-69.549,0 -89.636,54.098 -91.181,85l178.507,0Zm-178.507,69.549c3.091,69.549 37.084,101.233 98.143,101.233c44.045,-0 79.6,-27.049 86.545,-51.771l96.597,-0c-30.92,94.271 -96.597,134.462 -187.014,134.462c-125.955,-0 -203.993,-86.545 -203.993,-210.191c-0,-119.775 82.674,-210.955 203.993,-210.955c136.007,-0 201.702,114.357 193.959,237.222l-288.23,0Z" style="fill:#030404;fill-rule:nonzero;"/></g><g><path d="M5749.1,3091.13l104.323,-0l-0,55.625l2.326,-0c27.813,-44.809 75.712,-66.441 122.084,-66.441c116.684,-0 146.041,65.677 146.041,164.583l0,245.747l-109.722,-0l0,-225.66c0,-65.677 -19.323,-98.125 -70.312,-98.125c-59.497,-0 -85.001,33.229 -85.001,114.375l0,209.41l-109.739,-0l-0,-399.514Z" style="fill:#030404;fill-rule:nonzero;"/></g><g><path d="M6330.94,3091.13l80.364,-0l0,73.403l-80.364,-0l-0,197.83c-0,37.1 9.27,46.354 46.371,46.354c11.58,-0 22.396,-0.764 33.993,-3.073l0,85.764c-18.541,3.09 -42.5,3.871 -64.132,3.871c-67.239,0 -125.972,-15.451 -125.972,-95.052l-0,-235.694l-66.441,-0l-0,-73.403l66.441,-0l-0,-119.775l109.74,0l-0,119.775Z" style="fill:#030404;fill-rule:nonzero;"/></g><g><rect x="6451.46" y="2938.89" width="109.722" height="551.754" style="fill:#030404;"/></g><g><path d="M6829.33,3540.87c-23.958,64.132 -61.823,90.399 -137.552,90.399c-22.413,0 -44.826,-1.545 -67.222,-3.871l-0,-90.4c20.851,1.545 42.483,4.636 64.132,3.872c37.865,-3.872 50.226,-43.282 37.865,-74.966l-140.643,-374.774l117.465,-0l90.4,273.559l1.545,-0l87.326,-273.559l113.594,-0l-166.91,449.74Z" style="fill:#030404;fill-rule:nonzero;"/></g><g><path d="M7411.17,3418.77c74.948,-0 97.361,-64.132 97.361,-127.5c0,-64.132 -22.413,-128.282 -97.361,-128.282c-74.184,0 -96.597,64.15 -96.597,128.282c-0,63.368 22.413,127.5 96.597,127.5Zm0,-338.455c125.955,-0 207.101,83.455 207.101,210.955c-0,126.719 -81.146,210.191 -207.101,210.191c-125.191,-0 -206.319,-83.472 -206.319,-210.191c-0,-127.5 81.128,-210.955 206.319,-210.955Z" style="fill:#030404;fill-rule:nonzero;"/></g><g><path d="M7658.41,3091.13l104.323,-0l-0,74.184l1.545,-0c20.087,-50.226 74.184,-85 127.5,-85c7.726,-0 16.997,1.545 23.941,3.854l0,101.997c-10.035,-2.31 -26.267,-3.855 -39.41,-3.855c-80.364,0 -108.177,57.952 -108.177,128.282l0,180.052l-109.722,-0l-0,-399.514Z" style="fill:#030404;fill-rule:nonzero;"/></g><g><path d="M8223.25,3285.87c0,-64.93 -22.413,-122.882 -93.507,-122.882c-61.806,0 -88.854,54.098 -88.854,113.594c-0,57.188 21.632,119.775 88.854,119.775c62.604,-0 93.507,-53.316 93.507,-110.487Zm104.323,179.271c0,65.678 -23.177,176.945 -207.101,176.945c-78.819,0 -170.764,-37.083 -176.18,-128.264l108.958,0c10.052,40.955 43.264,54.879 81.91,54.879c61.059,-0 88.871,-41.754 88.09,-98.924l0,-52.552l-1.545,-0c-23.958,41.736 -71.858,61.823 -119.774,61.823c-119.775,-0 -170.782,-91.181 -170.782,-200.921c0,-103.541 59.514,-197.812 171.563,-197.812c52.535,-0 92.726,17.778 118.993,64.132l1.545,-0l0,-53.316l104.323,-0l0,374.01Z" style="fill:#030404;fill-rule:nonzero;"/></g><g><path d="M8633.55,3295.12c-18.542,16.233 -57.188,17.014 -91.181,23.194c-34.01,6.962 -64.913,18.542 -64.913,58.733c-0,40.938 31.684,50.99 67.222,50.99c85.781,-0 88.872,-67.986 88.872,-91.945l-0,-40.972Zm-253.455,-81.129c6.18,-102.777 98.125,-133.68 187.76,-133.68c79.601,-0 175.417,17.778 175.417,113.594l-0,207.864c-0,36.32 3.871,72.639 13.924,88.872l-111.285,-0c-3.872,-12.361 -6.945,-25.504 -7.726,-38.646c-34.774,36.32 -85.781,49.462 -134.462,49.462c-75.729,-0 -136.007,-37.865 -136.007,-119.774c0,-90.417 68.004,-112.049 136.007,-121.337c67.24,-10.035 129.827,-7.709 129.827,-52.535c-0,-47.136 -32.466,-54.097 -71.094,-54.097c-41.736,-0 -68.785,16.996 -72.639,60.277l-109.722,0Z" style="fill:#030404;fill-rule:nonzero;"/></g><g><path d="M8812.78,3091.13l104.323,-0l-0,55.625l2.309,-0c27.83,-44.809 75.729,-66.441 122.118,-66.441c116.667,-0 146.042,65.677 146.042,164.583l-0,245.747l-109.74,-0l0,-225.66c0,-65.677 -19.305,-98.125 -70.312,-98.125c-59.497,-0 -85.001,33.229 -85.001,114.375l0,209.41l-109.739,-0l-0,-399.514Z" style="fill:#030404;fill-rule:nonzero;"/></g><g><path d="M9243.17,3091.13l109.74,-0l-0,399.514l-109.74,-0l0,-399.514Zm109.74,-61.823l-109.74,-0l0,-90.417l109.74,0l-0,90.417Z" style="fill:#030404;fill-rule:nonzero;"/></g><g><path d="M9399.24,3407.95l207.882,-234.132l-192.414,-0l0,-82.691l336.91,-0l0,82.691l-207.864,234.132l222.552,-0l-0,82.691l-367.066,-0l-0,-82.691Z" style="fill:#030404;fill-rule:nonzero;"/></g><g><path d="M10078.5,3247.99c-10.035,-55.625 -33.993,-85 -87.309,-85c-69.549,0 -89.636,54.098 -91.181,85l178.49,0Zm-178.49,69.549c3.09,69.549 37.101,101.233 98.125,101.233c44.045,-0 79.601,-27.049 86.545,-51.771l96.598,-0c-30.903,94.271 -96.598,134.462 -187.014,134.462c-125.938,-0 -203.993,-86.545 -203.993,-210.191c-0,-119.775 82.691,-210.955 203.993,-210.955c136.007,-0 201.701,114.357 193.976,237.222l-288.23,0Z" style="fill:#030404;fill-rule:nonzero;"/></g><g><path d="M10427,3162.99c-71.858,0 -96.58,61.823 -96.58,127.518c-0,62.587 28.576,128.264 96.58,128.264c72.639,-0 94.271,-63.368 94.271,-129.045c-0,-64.914 -23.177,-126.737 -94.271,-126.737Zm95.833,276.65l-1.562,-0c-25.504,43.264 -70.313,61.823 -121.302,61.823c-120.573,-0 -179.289,-103.559 -179.289,-214.063c0,-107.413 59.497,-207.083 176.962,-207.083c47.136,-0 93.507,20.087 118.993,59.496l-0.781,0l1.545,0l0,-200.92l109.757,0l0,551.754l-104.323,-0l0,-51.007Z" style="fill:#030404;fill-rule:nonzero;"/></g><g><path d="M11027.3,3040.91l-165.348,-0l0,-102.014l452.049,0l0,102.014l-165.364,-0l-0,449.74l-121.337,-0l-0,-449.74Z" style="fill:#030404;fill-rule:nonzero;"/></g><g><path d="M11361.9,2938.89l412.639,0l0,102.014l-291.319,-0l-0,118.229l267.378,0l0,94.271l-267.378,0l-0,135.226l297.5,-0l-0,102.014l-418.82,-0l0,-551.754Z" style="fill:#030404;fill-rule:nonzero;"/></g><g><path d="M11953,3388.63l108.177,-0c70.313,-0 137.552,-43.264 137.552,-165.365c0,-111.285 -38.645,-182.361 -159.201,-182.361l-86.528,-0l0,347.726Zm-121.337,-449.74l238.004,0c142.969,0 250.365,89.653 250.365,272.795c-0,159.948 -81.893,278.959 -250.365,278.959l-238.004,-0l0,-551.754Z" style="fill:#030404;fill-rule:nonzero;"/></g><g><path d="M12845.5,3247.99c-10.035,-55.625 -33.993,-85 -87.309,-85c-69.549,0 -89.636,54.098 -91.181,85l178.49,0Zm-178.49,69.549c3.073,69.549 37.083,101.233 98.125,101.233c44.045,-0 79.601,-27.049 86.545,-51.771l96.598,-0c-30.903,94.271 -96.598,134.462 -187.015,134.462c-125.937,-0 -203.993,-86.545 -203.993,-210.191c0,-119.775 82.691,-210.955 203.993,-210.955c136.008,-0 201.702,114.357 193.976,237.222l-288.229,0Z" style="fill:#030404;fill-rule:nonzero;"/></g><g><path d="M13210.2,3490.64l-122.101,-0l-136.771,-399.514l115.122,-0l84.236,272.778l1.545,-0l84.219,-272.778l108.976,-0l-135.226,399.514Z" style="fill:#030404;fill-rule:nonzero;"/></g><g><path d="M13629,3247.99c-10.034,-55.625 -33.993,-85 -87.309,-85c-69.549,0 -89.653,54.098 -91.18,85l178.489,0Zm-178.489,69.549c3.072,69.549 37.083,101.233 98.125,101.233c44.045,-0 79.6,-27.049 86.545,-51.771l96.597,-0c-30.92,94.271 -96.597,134.462 -187.014,134.462c-125.955,-0 -203.993,-86.545 -203.993,-210.191c-0,-119.775 82.691,-210.955 203.993,-210.955c136.007,-0 201.684,114.357 193.959,237.222l-288.212,0Z" style="fill:#030404;fill-rule:nonzero;"/></g><g><path d="M13788.1,3091.13l104.323,-0l0,55.625l2.309,-0c27.83,-44.809 75.747,-66.441 122.101,-66.441c116.684,-0 146.059,65.677 146.059,164.583l-0,245.747l-109.74,-0l0,-225.66c0,-65.677 -19.323,-98.125 -70.312,-98.125c-59.514,-0 -85.018,33.229 -85.018,114.375l0,209.41l-109.722,-0l0,-399.514Z" style="fill:#030404;fill-rule:nonzero;"/></g><g><path d="M14370,3091.13l80.365,-0l0,73.403l-80.365,-0l0,197.83c0,37.1 9.289,46.354 46.372,46.354c11.597,-0 22.413,-0.764 33.993,-3.073l0,85.764c-18.524,3.09 -42.483,3.871 -64.132,3.871c-67.222,0 -125.955,-15.451 -125.955,-95.052l0,-235.694l-66.458,-0l-0,-73.403l66.458,-0l0,-119.775l109.722,0l0,119.775Z" style="fill:#030404;fill-rule:nonzero;"/></g><g><path d="M1378.84,1113.53l-514.844,-0l-0,-470.851l1595.14,-0l-0,470.851l-514.653,-0l-0,1366.23l-565.643,-0l-0,-1366.23Z" style="fill:#ee3523;fill-rule:nonzero;"/></g><g><path d="M2547.05,642.674l1548.47,-0l0,470.851l-982.466,-0l0,228.924l982.466,-0l0,437.535l-982.466,-0l0,228.941l982.727,-0l-0,470.834l-1548.73,-0l-0,-1837.09Z" style="fill:#ee3523;fill-rule:nonzero;"/></g><g><path d="M4756.76,2008.92l221.355,-0c352.587,-0 404.132,-285.677 404.132,-458.264c-0,-115.556 -36.215,-437.136 -445.348,-437.136l-180.139,-0l0,895.4Zm-565.972,-1366.25l928.82,-0c612.257,-0 828.646,452.865 828.646,915.851c0,563.629 -298.472,921.234 -939.167,921.234l-818.299,-0l-0,-1837.09Z" style="fill:#ee3523;fill-rule:nonzero;"/></g><g><path d="M6761.53,1771.82l-172.656,-286.302l-168.368,286.302l-414.706,0l393.699,-578.924l-379.098,-553.75l414.844,-0l153.629,273.732l158.038,-273.732l414.723,-0l-378.976,553.75l393.681,578.924l-414.81,0Z" style="fill:#ee3523;fill-rule:nonzero;"/></g></svg>