<?xml version="1.0" encoding="UTF-8" standalone="no"?>
<!DOCTYPE svg PUBLIC "-//W3C//DTD SVG 1.1//EN" "http://www.w3.org/Graphics/SVG/1.1/DTD/svg11.dtd">
<svg width="100%" height="100%" viewBox="0 0 938 604" version="1.1" xmlns="http://www.w3.org/2000/svg" xmlns:xlink="http://www.w3.org/1999/xlink" xml:space="preserve" style="fill-rule:evenodd;clip-rule:evenodd;stroke-miterlimit:10;">
    <g transform="matrix(1,0,0,1,-131,-148)">
        <path d="M811.584,714.656L806.711,654.08L792.785,718.137C792.785,718.137 792.969,734.298 793.43,752L811.271,752C811.872,731.764 811.584,714.656 811.584,714.656Z" style="fill:rgb(242,242,242);fill-rule:nonzero;"/>
    </g>
    <g transform="matrix(1,0,0,1,-131,-148)">
        <path d="M560.99,736.199C559.618,730.534 558.65,724.779 558.092,718.978L556.143,698.023C555.323,692.284 554.481,687.228 553.634,682.765C547.426,650.942 541.018,649.791 541.018,649.791C540.743,650.002 540.475,650.236 540.199,650.476C539.446,651.162 538.745,651.902 538.101,652.69C527.895,665.663 520.971,699.309 517.333,721.629C515.324,733.958 514.323,742.83 514.323,742.83C514.323,742.83 515.233,746.609 516.473,752L563.048,752C562.872,746.679 562.182,741.387 560.99,736.199Z" style="fill:rgb(242,242,242);fill-rule:nonzero;"/>
    </g>
    <g transform="matrix(1,0,0,1,-131,-148)">
        <path d="M841.099,752L1069,752L1069,148L131,148L131,752L480.202,752L477.525,739.399C477.525,739.399 470.64,694.971 477.525,660.333C479.748,649.466 481.274,638.467 482.092,627.405C482.953,614.916 484.995,602.536 488.189,590.432C488.371,589.733 488.575,589.041 488.765,588.344C487.086,587.888 486.315,587.523 486.705,587.292C487.781,586.657 488.372,584.711 488.667,582.242C490.501,565.897 493.998,549.782 499.104,534.147C492.147,538.515 487.529,538.978 484.505,537.286C473.879,534.384 478.29,510.486 478.29,510.486C478.29,510.486 484.894,458.796 487.087,440.08C488.348,429.322 504.507,423.226 518.811,419.916C520.318,416.683 521.403,413.426 520.714,410.009C520.668,409.778 520.601,409.556 520.54,409.331C518.721,405.292 515.024,401.968 513.637,397.785C513.022,396.659 512.589,395.443 512.354,394.182C511.125,387.01 517.831,380.814 519.765,373.916C517.792,372.011 516.319,369.65 515.477,367.04C512.53,360.997 513.967,353.743 523.429,348.142C525.318,347.024 527.319,346.037 529.353,345.091C530.097,344.609 530.907,344.238 531.758,343.988C538.528,340.925 545.333,337.962 549.385,332C550.428,330.464 551.343,328.683 553.031,327.876C553.827,327.536 554.678,327.345 555.543,327.314C568.588,326.312 580.4,337.499 593.383,335.896C597.317,335.41 601.332,333.757 605.107,334.947C607.588,335.729 609.523,337.634 611.191,339.605C620.372,350.565 624.193,365.073 621.601,379.134C619.955,387.687 615.952,396.502 618.836,404.731C620.956,410.778 626.631,415.685 626.671,422.081C626.704,427.344 622.968,431.544 619.359,435.639C619.828,436.119 620.285,436.612 620.731,437.118C629.552,447.168 627.885,455.746 626.641,459.18L626.641,459.182L622.105,502.956L618.28,532.323C618.28,532.323 617.334,544.375 608.426,547.018C605.83,548.219 602.431,548.535 597.962,547.175C595.062,546.293 592.619,545.411 590.545,544.553C592.505,550.813 595.879,563.593 595.331,575.997C594.566,593.316 596.861,594.822 596.861,594.822C596.717,595 596.554,595.161 596.374,595.303C605.461,615.379 605.544,635.977 596.096,656.568C585.386,679.911 596.861,734.127 596.861,734.127C596.861,734.127 597.678,742.585 598.045,752L762.333,752C759.72,727.077 756.581,702.127 755.186,699.338C752.887,694.74 755.806,618.993 756.896,592.682C756.412,592.559 755.939,592.435 755.493,592.307C754.716,592.084 754.018,591.852 753.373,591.614C753.34,592.953 753.482,594.291 753.794,595.593C754.761,597.85 752.442,599.508 748.501,600.64C750.793,611.826 753.624,632.64 744.046,636.673C734.193,640.822 733.996,615.622 734.537,602.486C733.294,602.532 732.048,602.556 730.817,602.556C718.98,602.556 734.298,465.391 733.602,456.339C732.906,447.288 739.172,410.385 739.172,410.385C739.172,410.385 741.261,402.726 747.527,401.334C753.794,399.941 783.733,382.534 783.733,382.534C785.417,380.169 787.546,378.154 790,376.602L790,375.572C790.781,374.844 791.611,374.172 792.485,373.56C792.12,367.477 791.297,359.628 790.697,354.325C787.332,350.896 785.058,346.546 784.164,341.825C782.881,340.824 781.663,339.742 780.518,338.586C777.644,335.29 775.993,331.101 775.848,326.73C775.72,322.388 776.349,318.057 777.705,313.931C778.06,312.559 778.602,311.244 779.318,310.022C780.303,308.605 781.538,307.38 782.963,306.408C783.386,306.095 783.823,305.801 784.258,305.505C785.181,303.712 786.535,302.175 788.197,301.034C791.751,298.7 796.324,298.891 800.574,298.997C800.637,298.998 800.702,298.998 800.766,298.998C801.555,298.872 802.346,298.767 803.14,298.684C804.087,298.496 804.836,297.762 805.043,296.819C805.619,297.372 806.194,297.924 806.769,298.477C807.632,298.464 808.495,298.479 809.357,298.521C809.739,297.647 810.187,296.805 810.699,296C811.014,296.899 811.329,297.799 811.645,298.698C812.511,298.79 813.374,298.907 814.232,299.056C814.909,298.518 815.586,297.98 816.262,297.443C816.413,297.323 816.951,299.085 817.223,299.69C817.689,299.81 818.154,299.937 818.614,300.079C819.333,300.047 820.132,299.912 820.576,299.919C823.026,299.836 825.45,300.441 827.573,301.664C829.428,303.013 830.95,304.769 832.021,306.797C834.756,311.125 836.455,316.026 836.985,321.118C838.314,322.96 839.252,325.055 839.739,327.273C840.889,334.262 834.246,340.103 832.93,347.063C832.228,350.776 833.029,354.889 831.138,358.16C830.31,359.478 829.225,360.615 827.948,361.504C827.194,362.068 826.406,362.586 825.591,363.057C825.635,367.267 826.118,371.461 827.032,375.572L827.928,379.007C829.321,380.011 830.823,381.172 832.472,382.534C832.472,382.534 851.968,390.89 858.931,395.067C865.052,398.74 871.707,399.188 873.7,403.972L874.249,404.119C874.249,404.119 881.211,481.405 881.908,494.634C882.604,507.863 890.959,589.327 889.567,592.808C889.051,594.097 885.768,595.575 881.803,596.751C884.117,607.326 887.852,630.323 877.73,634.585C867.469,638.905 867.68,611.392 868.292,598.828C866.923,598.705 866.026,598.347 865.894,597.682C865.78,597.117 865.417,594.56 864.893,590.662C864.025,590.797 863.126,590.936 862.168,591.082C861.976,591.111 861.774,591.141 861.578,591.17C870.406,618.938 850.855,692.582 847.094,706.997C845.129,714.529 843.01,733.154 841.099,752Z" style="fill:rgb(242,242,242);fill-rule:nonzero;"/>
    </g>
    <ellipse cx="210" cy="169" rx="95" ry="86.45" style="fill:rgb(64,64,64);"/>
    <g transform="matrix(1,0,0,1,-131,-148)">
        <path d="M497.5,599.5C497.5,599.5 529.5,577.5 529.5,567.5C529.5,557.5 551.5,492.5 563.5,521.5C575.5,550.5 546.5,591.5 546.5,591.5C546.5,591.5 514.5,649.5 495.5,659.5C476.5,669.5 460.5,663.5 460.5,663.5L460.5,636.5L478.782,609.443C482.979,603.232 490.003,599.5 497.5,599.5Z" style="fill:rgb(255,185,185);fill-rule:nonzero;"/>
    </g>
    <g transform="matrix(1,0,0,1,-131,-148)">
        <path d="M406.544,446.336C406.544,446.336 454.5,461.5 459.5,468.5C464.5,475.5 466.5,463.5 480.5,509.5C494.5,555.5 498,600 498,600C498,600 463.5,611.5 467.5,656.5C471.5,701.5 461.5,750.5 461.5,750.5L449.016,750.5L421.5,665.5L454.5,536.5C454.5,536.5 407.587,457.173 406.544,446.336Z" style="fill:rgb(230,43,30);fill-rule:nonzero;"/>
    </g>
    <circle cx="259.5" cy="196.5" r="60" style="fill:rgb(255,185,185);"/>
    <g transform="matrix(1,0,0,1,-131,-148)">
        <path d="M413.5,389.5C413.5,389.5 396.5,445.5 411.5,453.5C426.5,461.5 443.5,497.5 443.5,497.5L417.5,526.5L357.5,526.5L330.5,496.5L319.5,445.5L334.5,433.5C334.5,433.5 350.5,393.5 350.5,372.5C350.5,351.5 413.5,389.5 413.5,389.5Z" style="fill:rgb(255,185,185);fill-rule:nonzero;"/>
    </g>
    <g transform="matrix(1,0,0,1,-131,-148)">
        <path d="M418.5,451.5C418.5,451.5 406.5,448.5 413.5,460.5C420.5,472.5 427.5,494.5 402.5,495.5C377.5,496.5 352.5,483.5 344.5,456.5C336.5,429.5 333.5,431.5 330.5,432.5C327.5,433.5 295.5,466.5 295.5,466.5L306.5,528.5L310.5,750.5L456.5,750.5C456.5,750.5 462.5,686.5 452.5,671.5C442.5,656.5 461.5,618.5 461.5,618.5C461.5,618.5 478.5,592.5 465.5,542.5C452.5,492.5 423.5,451.5 418.5,451.5Z" style="fill:white;fill-rule:nonzero;"/>
    </g>
    <g transform="matrix(1,0,0,1,-131,-148)">
        <path d="M337.5,432.5C337.5,432.5 322.5,425.5 309.5,437.5C296.5,449.5 267.5,459.5 267.5,465.5C267.5,471.5 292.5,642.5 275.5,672.5C258.5,702.5 240.5,750.5 240.5,750.5L323.913,750.5C323.913,750.5 337.5,700.5 351.5,673.5C365.5,646.5 364.5,570.5 360.5,547.5C356.5,524.5 337.5,432.5 337.5,432.5Z" style="fill:rgb(230,43,30);fill-rule:nonzero;"/>
    </g>
    <path d="M118.5,549.5L123.37,602.5L177.417,602.5L172.5,536.5L118.5,549.5Z" style="fill:rgb(255,185,185);fill-rule:nonzero;"/>
    <g transform="matrix(1,0,0,1,0,1.50001)">
        <path d="M364.5,521.5L377.5,602.5L666.5,602.5L691.5,439.5L364.5,521.5Z" style="fill:rgb(64,64,64);fill-rule:nonzero;"/>
    </g>
    <path d="M702.5,428.5L705.5,443.5L331.5,533.5L331.5,520.5L702.5,428.5Z" style="fill:rgb(64,64,64);fill-rule:nonzero;"/>
    <path d="M544.5,455.5L542.5,472.5L564.5,469.5L555.5,452.5L544.5,455.5Z" style="fill:rgb(64,64,64);fill-rule:nonzero;"/>
    <g transform="matrix(1,0,0,1,-131,-148)">
        <path d="M554.5,431.5C554.5,431.5 598.5,428.5 610.5,462.5C622.5,496.5 650.5,557.5 661.5,566.5C672.5,575.5 684.5,599.5 682.5,607.5" style="fill:none;fill-rule:nonzero;stroke:rgb(63,61,86);stroke-width:5px;"/>
    </g>
    <g transform="matrix(1,0,0,1,-131,-148)">
        <path d="M561,431C561,435.694 556.008,439.5 548,439.5C539.992,439.5 536,435.694 536,431C536,426.306 539.992,422.5 548,422.5C556.008,422.5 561,426.306 561,431Z" style="fill:rgb(64,64,64);fill-rule:nonzero;"/>
    </g>
    <g transform="matrix(1,0,0,1,-131,-148)">
        <path d="M487,587C487,587 494.5,555.5 480.5,509.5C466.5,463.5 464.5,475.5 459.5,468.5C454.5,461.5 406.544,446.336 406.544,446.336C406.887,449.897 412.182,460.853 419.139,473.96C417.886,469.235 415.989,464.706 413.5,460.5C406.5,448.5 418.5,451.5 418.5,451.5C423.5,451.5 452.5,492.5 465.5,542.5C478.5,592.5 461.5,618.5 461.5,618.5L487,587Z" style="fill:rgb(230,43,30);fill-rule:nonzero;"/>
    </g>
    <g transform="matrix(1,0,0,1,-131,-148)">
        <path d="M407,446C407,446 412.92,468.458 417.96,471.729C423,475 452.89,506.054 452.89,506.054L449,481L433,457L428.744,453.912L407,446Z" style="fill:rgb(230,43,30);fill-rule:nonzero;"/>
    </g>
    <g transform="matrix(1,0,0,1,-131,-148)">
        <path d="M274,515L275.394,463.5C275.394,463.5 242.5,477.5 239.5,537.5C236.5,597.5 244.5,710.5 255.5,711.5C266.5,712.5 318.5,700.5 318.5,700.5C318.5,700.5 326.5,555.5 323.5,536.5C320.5,517.5 274,515 274,515Z" style="fill-opacity:0.1;fill-rule:nonzero;"/>
    </g>
    <g transform="matrix(1,0,0,1,-131,-148)">
        <path d="M276.5,463.5L268.394,463.5C268.394,463.5 235.5,477.5 232.5,537.5C229.5,597.5 237.5,710.5 248.5,711.5C259.5,712.5 311.5,700.5 311.5,700.5C311.5,700.5 319.5,555.5 316.5,536.5C313.5,517.5 276.5,463.5 276.5,463.5Z" style="fill:rgb(230,43,30);fill-rule:nonzero;"/>
    </g>
    <ellipse cx="188" cy="180.5" rx="62" ry="69.5" style="fill:rgb(64,64,64);"/>
    <ellipse cx="232.5" cy="218.5" rx="12.5" ry="18.5" style="fill:rgb(255,185,185);"/>
    <circle cx="126" cy="111" r="51" style="fill:rgb(64,64,64);"/>
    <g transform="matrix(1,0,0,1,-131,-148)">
        <path d="M263.592,299.857C256.428,303.502 248.503,305.402 240.466,305.402C214.311,305.402 192.181,285.281 189.699,259.244C189.312,261.787 189.117,264.357 189.117,266.93C189.117,294.904 212.137,317.924 240.111,317.924C268.086,317.924 291.106,294.904 291.106,266.93C291.106,265.311 291.029,263.694 290.875,262.082C288.415,278.327 278.24,292.415 263.592,299.857Z" style="fill:rgb(64,64,64);fill-rule:nonzero;"/>
    </g>
    <g transform="matrix(1,0,0,1,-131,-148)">
        <path d="M229.021,267.43C222.007,258.462 218.194,247.398 218.194,236.013C218.194,213.493 233.111,193.516 254.703,187.118C227.555,188.252 205.837,210.896 205.837,238.068C205.837,266.043 228.857,289.063 256.832,289.063C261.74,289.063 266.622,288.354 271.328,286.959C254.913,287.661 239.134,280.378 229.021,267.43Z" style="fill:rgb(64,64,64);fill-rule:nonzero;"/>
    </g>
    <ellipse cx="263" cy="150" rx="36" ry="26" style="fill:rgb(64,64,64);"/>
</svg>
